# xmcd
#
# Track frame offsets:
#	150
#	19760
#	34782
#	45172
#	58895
#	70652
#	83667
#	99202
#	112412
#	127225
#	141602
#	152932
#	167270
#	180762
#	191870
#	202767
#	215027
#	228207
#	241920
#	254827
#	268920
#	284042
#	296590
#	311352
#
# Disc length: 4322 seconds
#
# Revision: 0
# Processed by: cddbd v1.5.2PL0 Copyright (c) Steve Scherf et al.
# Submitted via: EasyCDDAExtractor 16.0.8.2
#
DISCID=6710e018
DTITLE=Αγγελόπουλος Μανώλης - Τραγουδώντας τις εποχές-Αγγελόπουλος Μαν. 2
DYEAR=1991
DGENRE=Λαϊκή
TTITLE0=Τα μαύρα μάτια σου [δ.Μ.Αγγελόπουλου-Μ.Μπιζάνη]
TTITLE1=Αγάπες μου περαστικές [Μ.Χριστόπουλου-Σ.Καπίρη]
TTITLE2=Αυτή η κυρία [Θ.Καμπουρίδη-Λ.Τσώλη]
TTITLE3=Πέντε Έλληνες στον Άδη [Γ.Παπαϊωάννου-Κ.Μάνεση]
TTITLE4=Στην ακρογιαλιά στο Κίνι[ΒΑρχιτεκτονίδη-ΝΜπακογιάννη-ΠΠρογιά]
TTITLE5=Δεν θά 'σαι εσύ [Ν.Πετρίδη-Μ.Μπιζάνη]
TTITLE6=Ρίξτε στο γιαλί φαρμάκι [Α.Καλδάρα]
TTITLE7=Γαρύφαλλο στ' αυτί[Μ.Χατζιδάκι-Α.Σακελλάριου-Γ.Γιαννακόπουλου]
TTITLE8=Μιά φωνή δικαιοσύνης [Β.Καμπουρίδη]
TTITLE9=Μού 'στειλες πίσω το δαχτυλίδι [Σ.Βαρτάνη]
TTITLE10=Άϊντες-άϊντες [Ν.Πετρίδη-Μ.ΜΠιζάνη]
TTITLE11=Η διπρόσωπη [Α.Ρεπάνη-Ε.Παπαγιαννοπούλου]
TTITLE12=Με μίσησες και συ [Σ.Βαρτάνη]
TTITLE13=Πάλι μαύρα [Χ.Νικολόπουλου-Ε.Ατραϊδη-Γ.Βασιλόπουλου]
TTITLE14=Το τζάκι [Σ.Αγγελόπουλου-Η.Καρυάμπα]
TTITLE15=Τα σφάλματά σου [Θ.Καμπουρίδη-Κ.Λιβανού]
TTITLE16=Αυτό το τηλεφώνημα [Θ.Καμπουρίδη-Λ.Τσώλη]
TTITLE17=Δέκα χρόνια αγάπη [Σ.Βαρτάνη]
TTITLE18=Χαράματα πάλι [Γ.Παλαιολόγου-Α.Σπυρόπουλου]
TTITLE19=Δώσ' μου φίλε τη φωτιά σου [Ν.Πετρίδη-Μ.Μπιζάνη]
TTITLE20=Δεν φανταζόμουνα [Θ.Καμπουρίδη-Α.Σπυρόπουλου-Κ.Λιβανού]
TTITLE21=Στην υγειά σου θα πιω πάλι [Μ.Αγγελόπουλου-Γ.Δαμιανάκη]
TTITLE22=Σβήσε το δάκρυ από τα μάτια [Β.Αρχιτεκτονίδη-Ν.Μπακογιάννη]
TTITLE23=Αυτή η νύχτα [Μ.Αγγελόπουλου-Α.Πολίτη-Ε.Σίμου]
EXTD=
EXTT0=
EXTT1=
EXTT2=
EXTT3=
EXTT4=
EXTT5=
EXTT6=
EXTT7=
EXTT8=
EXTT9=
EXTT10=
EXTT11=
EXTT12=
EXTT13=
EXTT14=
EXTT15=
EXTT16=
EXTT17=
EXTT18=
EXTT19=
EXTT20=
EXTT21=
EXTT22=
EXTT23=
PLAYORDER=
